<svg xmlns="http://www.w3.org/2000/svg" width="1280" height="720" viewBox="0 0 1280 720">
  <defs>
    <linearGradient id="bg" x1="0" y1="0" x2="1280" y2="720" gradientUnits="userSpaceOnUse">
      <stop offset="0%" stop-color="#06060d"/>
      <stop offset="100%" stop-color="#0d0b1a"/>
    </linearGradient>
    <linearGradient id="titleGrad" x1="300" y1="0" x2="980" y2="0" gradientUnits="userSpaceOnUse">
      <stop offset="0%" stop-color="#ffffff"/>
      <stop offset="45%" stop-color="#c4b5fd"/>
      <stop offset="100%" stop-color="#67e8f9"/>
    </linearGradient>
    <linearGradient id="btnGrad" x1="0" y1="0" x2="1" y2="0">
      <stop offset="0%" stop-color="#6366f1"/>
      <stop offset="100%" stop-color="#8b5cf6"/>
    </linearGradient>
    <linearGradient id="topLine" x1="120" y1="0" x2="1160" y2="0" gradientUnits="userSpaceOnUse">
      <stop offset="0%" stop-color="transparent"/>
      <stop offset="50%" stop-color="#6366f1" stop-opacity="0.7"/>
      <stop offset="100%" stop-color="transparent"/>
    </linearGradient>
    <radialGradient id="orb1" cx="200" cy="200" r="400" gradientUnits="userSpaceOnUse">
      <stop offset="0%" stop-color="#6366f1" stop-opacity="0.2"/>
      <stop offset="100%" stop-color="transparent"/>
    </radialGradient>
    <radialGradient id="orb2" cx="1100" cy="520" r="350" gradientUnits="userSpaceOnUse">
      <stop offset="0%" stop-color="#8b5cf6" stop-opacity="0.15"/>
      <stop offset="100%" stop-color="transparent"/>
    </radialGradient>
    <filter id="glow">
      <feGaussianBlur stdDeviation="8" result="blur"/>
      <feMerge><feMergeNode in="blur"/><feMergeNode in="SourceGraphic"/></feMerge>
    </filter>
  </defs>

  <!-- BG -->
  <rect width="1280" height="720" fill="url(#bg)"/>
  <rect width="1280" height="720" fill="url(#orb1)"/>
  <rect width="1280" height="720" fill="url(#orb2)"/>

  <!-- Grid lines -->
  <line x1="0" y1="0" x2="0" y2="720" stroke="rgba(99,102,241,0.05)" stroke-width="1"/><line x1="48" y1="0" x2="48" y2="720" stroke="rgba(99,102,241,0.05)" stroke-width="1"/><line x1="96" y1="0" x2="96" y2="720" stroke="rgba(99,102,241,0.05)" stroke-width="1"/><line x1="144" y1="0" x2="144" y2="720" stroke="rgba(99,102,241,0.05)" stroke-width="1"/><line x1="192" y1="0" x2="192" y2="720" stroke="rgba(99,102,241,0.05)" stroke-width="1"/><line x1="240" y1="0" x2="240" y2="720" stroke="rgba(99,102,241,0.05)" stroke-width="1"/><line x1="288" y1="0" x2="288" y2="720" stroke="rgba(99,102,241,0.05)" stroke-width="1"/><line x1="336" y1="0" x2="336" y2="720" stroke="rgba(99,102,241,0.05)" stroke-width="1"/><line x1="384" y1="0" x2="384" y2="720" stroke="rgba(99,102,241,0.05)" stroke-width="1"/><line x1="432" y1="0" x2="432" y2="720" stroke="rgba(99,102,241,0.05)" stroke-width="1"/><line x1="480" y1="0" x2="480" y2="720" stroke="rgba(99,102,241,0.05)" stroke-width="1"/><line x1="528" y1="0" x2="528" y2="720" stroke="rgba(99,102,241,0.05)" stroke-width="1"/><line x1="576" y1="0" x2="576" y2="720" stroke="rgba(99,102,241,0.05)" stroke-width="1"/><line x1="624" y1="0" x2="624" y2="720" stroke="rgba(99,102,241,0.05)" stroke-width="1"/><line x1="672" y1="0" x2="672" y2="720" stroke="rgba(99,102,241,0.05)" stroke-width="1"/><line x1="720" y1="0" x2="720" y2="720" stroke="rgba(99,102,241,0.05)" stroke-width="1"/><line x1="768" y1="0" x2="768" y2="720" stroke="rgba(99,102,241,0.05)" stroke-width="1"/><line x1="816" y1="0" x2="816" y2="720" stroke="rgba(99,102,241,0.05)" stroke-width="1"/><line x1="864" y1="0" x2="864" y2="720" stroke="rgba(99,102,241,0.05)" stroke-width="1"/><line x1="912" y1="0" x2="912" y2="720" stroke="rgba(99,102,241,0.05)" stroke-width="1"/><line x1="960" y1="0" x2="960" y2="720" stroke="rgba(99,102,241,0.05)" stroke-width="1"/><line x1="1008" y1="0" x2="1008" y2="720" stroke="rgba(99,102,241,0.05)" stroke-width="1"/><line x1="1056" y1="0" x2="1056" y2="720" stroke="rgba(99,102,241,0.05)" stroke-width="1"/><line x1="1104" y1="0" x2="1104" y2="720" stroke="rgba(99,102,241,0.05)" stroke-width="1"/><line x1="1152" y1="0" x2="1152" y2="720" stroke="rgba(99,102,241,0.05)" stroke-width="1"/><line x1="1200" y1="0" x2="1200" y2="720" stroke="rgba(99,102,241,0.05)" stroke-width="1"/><line x1="1248" y1="0" x2="1248" y2="720" stroke="rgba(99,102,241,0.05)" stroke-width="1"/>
  <line x1="0" y1="0" x2="1280" y2="0" stroke="rgba(99,102,241,0.05)" stroke-width="1"/><line x1="0" y1="48" x2="1280" y2="48" stroke="rgba(99,102,241,0.05)" stroke-width="1"/><line x1="0" y1="96" x2="1280" y2="96" stroke="rgba(99,102,241,0.05)" stroke-width="1"/><line x1="0" y1="144" x2="1280" y2="144" stroke="rgba(99,102,241,0.05)" stroke-width="1"/><line x1="0" y1="192" x2="1280" y2="192" stroke="rgba(99,102,241,0.05)" stroke-width="1"/><line x1="0" y1="240" x2="1280" y2="240" stroke="rgba(99,102,241,0.05)" stroke-width="1"/><line x1="0" y1="288" x2="1280" y2="288" stroke="rgba(99,102,241,0.05)" stroke-width="1"/><line x1="0" y1="336" x2="1280" y2="336" stroke="rgba(99,102,241,0.05)" stroke-width="1"/><line x1="0" y1="384" x2="1280" y2="384" stroke="rgba(99,102,241,0.05)" stroke-width="1"/><line x1="0" y1="432" x2="1280" y2="432" stroke="rgba(99,102,241,0.05)" stroke-width="1"/><line x1="0" y1="480" x2="1280" y2="480" stroke="rgba(99,102,241,0.05)" stroke-width="1"/><line x1="0" y1="528" x2="1280" y2="528" stroke="rgba(99,102,241,0.05)" stroke-width="1"/><line x1="0" y1="576" x2="1280" y2="576" stroke="rgba(99,102,241,0.05)" stroke-width="1"/><line x1="0" y1="624" x2="1280" y2="624" stroke="rgba(99,102,241,0.05)" stroke-width="1"/><line x1="0" y1="672" x2="1280" y2="672" stroke="rgba(99,102,241,0.05)" stroke-width="1"/><line x1="0" y1="720" x2="1280" y2="720" stroke="rgba(99,102,241,0.05)" stroke-width="1"/>

  <!-- Card -->
  <rect x="120" y="80" width="1040" height="560" rx="24" fill="rgba(255,255,255,0.025)" stroke="rgba(99,102,241,0.2)" stroke-width="1"/>
  <line x1="120" y1="80" x2="1160" y2="80" stroke="url(#topLine)" stroke-width="1.5"/>

  <!-- Corner marks -->
  <path d="M145 104 L145 124 M145 104 L165 104" stroke="rgba(99,102,241,0.5)" stroke-width="2" fill="none"/>
  <path d="M1135 104 L1135 124 M1135 104 L1115 104" stroke="rgba(99,102,241,0.5)" stroke-width="2" fill="none"/>
  <path d="M145 616 L145 596 M145 616 L165 616" stroke="rgba(99,102,241,0.5)" stroke-width="2" fill="none"/>
  <path d="M1135 616 L1135 596 M1135 616 L1115 616" stroke="rgba(99,102,241,0.5)" stroke-width="2" fill="none"/>

  <!-- Badge -->
  <rect x="490" y="128" width="300" height="36" rx="18" fill="rgba(6,182,212,0.1)" stroke="rgba(6,182,212,0.3)" stroke-width="1"/>
  <text x="640" y="151" text-anchor="middle" font-family="Inter, Arial, sans-serif" font-size="11" font-weight="700" fill="#06b6d4" letter-spacing="2">✦  AI-POWERED · PERSONALIZED  ✦</text>

  <!-- Title -->
  <text x="640" y="285" text-anchor="middle" font-family="Arial, sans-serif" font-size="92" font-weight="800" fill="url(#titleGrad)">LaunchModel</text>

  <!-- Subtitle -->
  <text x="640" y="342" text-anchor="middle" font-family="Inter, Arial, sans-serif" font-size="28" font-weight="500" fill="#8b92a8">Full AI Prompt Chain</text>

  <!-- Divider -->
  <line x1="340" y1="378" x2="940" y2="378" stroke="rgba(99,102,241,0.3)" stroke-width="1"/>

  <!-- Feature pills -->
  <rect x="178" y="400" width="240" height="44" rx="12" fill="rgba(99,102,241,0.08)" stroke="rgba(99,102,241,0.2)" stroke-width="1"/>
  <text x="298" y="427" text-anchor="middle" font-family="Inter, Arial, sans-serif" font-size="13" font-weight="600" fill="#a5b4fc">5 Personalized Prompts</text>

  <rect x="456" y="400" width="240" height="44" rx="12" fill="rgba(99,102,241,0.08)" stroke="rgba(99,102,241,0.2)" stroke-width="1"/>
  <text x="576" y="427" text-anchor="middle" font-family="Inter, Arial, sans-serif" font-size="13" font-weight="600" fill="#a5b4fc">Strategy → Revenue Roadmap</text>

  <rect x="734" y="400" width="240" height="44" rx="12" fill="rgba(99,102,241,0.08)" stroke="rgba(99,102,241,0.2)" stroke-width="1"/>
  <text x="854" y="427" text-anchor="middle" font-family="Inter, Arial, sans-serif" font-size="13" font-weight="600" fill="#a5b4fc">Works with ChatGPT &amp; Claude</text>

  <!-- Price button -->
  <rect x="540" y="476" width="200" height="56" rx="14" fill="url(#btnGrad)" filter="url(#glow)"/>
  <text x="640" y="511" text-anchor="middle" font-family="Arial, sans-serif" font-size="22" font-weight="800" fill="white">Unlock for $17</text>

  <!-- Guarantee -->
  <text x="640" y="590" text-anchor="middle" font-family="Inter, Arial, sans-serif" font-size="13" fill="rgba(255,255,255,0.3)">One-time purchase · Instant access · 30-day refund guarantee</text>
</svg>