<svg xmlns="http://www.w3.org/2000/svg" width="500" height="500" viewBox="0 0 500 500">
  <defs>
    <linearGradient id="bgLogo" x1="0" y1="0" x2="500" y2="500" gradientUnits="userSpaceOnUse">
      <stop offset="0%" stop-color="#0d0b1a"/>
      <stop offset="100%" stop-color="#06060d"/>
    </linearGradient>
    <linearGradient id="iconGrad" x1="0" y1="0" x2="1" y2="1">
      <stop offset="0%" stop-color="#6366f1"/>
      <stop offset="100%" stop-color="#06b6d4"/>
    </linearGradient>
    <linearGradient id="textGrad" x1="0" y1="0" x2="500" y2="0" gradientUnits="userSpaceOnUse">
      <stop offset="0%" stop-color="#c4b5fd"/>
      <stop offset="100%" stop-color="#67e8f9"/>
    </linearGradient>
    <radialGradient id="glow" cx="250" cy="220" r="200" gradientUnits="userSpaceOnUse">
      <stop offset="0%" stop-color="#6366f1" stop-opacity="0.25"/>
      <stop offset="100%" stop-color="transparent"/>
    </radialGradient>
  </defs>

  <!-- BG -->
  <rect width="500" height="500" rx="40" fill="url(#bgLogo)"/>
  <rect width="500" height="500" rx="40" fill="url(#glow)"/>

  <!-- Border -->
  <rect x="1" y="1" width="498" height="498" rx="40" fill="none" stroke="rgba(99,102,241,0.3)" stroke-width="1.5"/>

  <!-- Icon: rocket/launch shape made of geometric lines -->
  <g transform="translate(250, 210)">
    <!-- Outer hexagon -->
    <polygon points="0,-80 69,-40 69,40 0,80 -69,40 -69,-40" fill="none" stroke="url(#iconGrad)" stroke-width="2" opacity="0.4"/>
    <!-- Inner diamond -->
    <polygon points="0,-48 40,0 0,48 -40,0" fill="rgba(99,102,241,0.15)" stroke="url(#iconGrad)" stroke-width="2"/>
    <!-- Center dot -->
    <circle cx="0" cy="0" r="10" fill="url(#iconGrad)"/>
    <!-- Upward arrow / launch indicator -->
    <line x1="0" y1="-14" x2="0" y2="-38" stroke="#67e8f9" stroke-width="2.5" stroke-linecap="round"/>
    <polyline points="-8,-28 0,-42 8,-28" fill="none" stroke="#67e8f9" stroke-width="2.5" stroke-linejoin="round" stroke-linecap="round"/>
  </g>

  <!-- LM text mark -->
  <text x="250" y="335" text-anchor="middle" font-family="Arial, sans-serif" font-size="48" font-weight="800" fill="url(#textGrad)">LM</text>

  <!-- Tagline -->
  <text x="250" y="385" text-anchor="middle" font-family="Arial, sans-serif" font-size="13" font-weight="600" fill="rgba(255,255,255,0.3)" letter-spacing="3">LAUNCHMODEL</text>
</svg>